<?xml version="1.0" encoding="utf-8"?>
<!-- Generator: Adobe Illustrator 27.8.0, SVG Export Plug-In . SVG Version: 6.00 Build 0)  -->
<svg version="1.1" id="Layer_1" xmlns="http://www.w3.org/2000/svg" xmlns:xlink="http://www.w3.org/1999/xlink" x="0px" y="0px"
	 viewBox="0 0 71.82 18.04" style="enable-background:new 0 0 71.82 18.04;" xml:space="preserve">
<style type="text/css">
	.st0{fill:#FFFFFF;}
</style>
<g>
	<g>
		<path class="st0" d="M22.54,12.87V5.02h2.58c0.58,0,1.09,0.08,1.54,0.23c0.45,0.15,0.8,0.4,1.06,0.76
			c0.26,0.35,0.39,0.83,0.39,1.44c0,0.58-0.13,1.05-0.39,1.43c-0.26,0.38-0.62,0.66-1.07,0.84s-0.96,0.28-1.53,0.28h-1.19v2.88
			H22.54z M23.93,8.87h1.08c0.58,0,1.02-0.12,1.3-0.36c0.28-0.24,0.43-0.6,0.43-1.07c0-0.5-0.15-0.84-0.44-1.03
			c-0.29-0.19-0.72-0.28-1.29-0.28h-1.08V8.87z"/>
		<path class="st0" d="M30.24,12.87V6.98h1.14l0.12,1.33h0.04c0.3-0.48,0.66-0.85,1.1-1.1c0.44-0.25,0.91-0.38,1.41-0.38
			c0.24,0,0.45,0.02,0.62,0.06c0.18,0.04,0.35,0.1,0.52,0.18L34.9,8.24c-0.19-0.06-0.36-0.11-0.51-0.14
			c-0.15-0.03-0.33-0.04-0.56-0.04c-0.4,0-0.79,0.12-1.17,0.35s-0.72,0.64-1.03,1.21v3.25H30.24z"/>
		<path class="st0" d="M39.84,13.01c-0.6,0-1.14-0.12-1.63-0.37c-0.49-0.24-0.88-0.6-1.16-1.06c-0.29-0.46-0.43-1.02-0.43-1.67
			c0-0.64,0.14-1.19,0.43-1.65s0.66-0.81,1.13-1.06s0.96-0.37,1.49-0.37c0.58,0,1.08,0.12,1.48,0.36c0.4,0.24,0.71,0.57,0.92,0.99
			s0.32,0.9,0.32,1.45c0,0.14,0,0.27-0.01,0.4c-0.01,0.13-0.02,0.23-0.04,0.3h-4.73V9.35h3.83l-0.26,0.3c0-0.58-0.13-1.02-0.39-1.32
			c-0.26-0.3-0.62-0.44-1.09-0.44c-0.33,0-0.62,0.08-0.88,0.23c-0.26,0.16-0.47,0.38-0.62,0.68c-0.15,0.3-0.23,0.67-0.23,1.1
			c0,0.46,0.09,0.85,0.26,1.15c0.17,0.3,0.41,0.52,0.72,0.67c0.31,0.15,0.67,0.22,1.07,0.22c0.31,0,0.6-0.04,0.86-0.13
			c0.26-0.09,0.53-0.21,0.79-0.36l0.47,0.86c-0.31,0.2-0.67,0.37-1.06,0.5C40.69,12.95,40.28,13.01,39.84,13.01z"/>
		<path class="st0" d="M45.93,12.87l-2.35-5.89h1.39l1.14,3.06c0.1,0.29,0.21,0.58,0.31,0.88c0.1,0.3,0.19,0.6,0.28,0.9h0.05
			c0.1-0.3,0.19-0.6,0.29-0.9c0.1-0.3,0.2-0.59,0.3-0.88l1.14-3.06h1.32l-2.29,5.89H45.93z"/>
		<path class="st0" d="M53.85,12.87V8.08h-2.56v-1.1h3.94v5.89H53.85z M54.44,5.9c-0.28,0-0.51-0.08-0.7-0.25
			c-0.19-0.17-0.28-0.39-0.28-0.67c0-0.28,0.09-0.51,0.28-0.68c0.19-0.17,0.42-0.26,0.7-0.26c0.29,0,0.52,0.09,0.71,0.26
			c0.18,0.17,0.28,0.4,0.28,0.68c0,0.28-0.09,0.5-0.28,0.67C54.96,5.81,54.72,5.9,54.44,5.9z"/>
		<path class="st0" d="M61.44,13.01c-0.6,0-1.14-0.12-1.63-0.37c-0.49-0.24-0.88-0.6-1.16-1.06c-0.29-0.46-0.43-1.02-0.43-1.67
			c0-0.64,0.14-1.19,0.43-1.65s0.66-0.81,1.13-1.06s0.96-0.37,1.49-0.37c0.58,0,1.08,0.12,1.48,0.36c0.4,0.24,0.71,0.57,0.92,0.99
			s0.32,0.9,0.32,1.45c0,0.14,0,0.27-0.01,0.4c-0.01,0.13-0.02,0.23-0.04,0.3h-4.73V9.35h3.83l-0.26,0.3c0-0.58-0.13-1.02-0.39-1.32
			c-0.26-0.3-0.62-0.44-1.09-0.44c-0.33,0-0.62,0.08-0.88,0.23c-0.26,0.16-0.47,0.38-0.62,0.68c-0.15,0.3-0.23,0.67-0.23,1.1
			c0,0.46,0.09,0.85,0.26,1.15c0.17,0.3,0.41,0.52,0.72,0.67c0.31,0.15,0.67,0.22,1.07,0.22c0.31,0,0.6-0.04,0.86-0.13
			c0.26-0.09,0.53-0.21,0.79-0.36l0.47,0.86c-0.31,0.2-0.67,0.37-1.06,0.5C62.29,12.95,61.88,13.01,61.44,13.01z"/>
		<path class="st0" d="M65.87,12.87l-1.13-5.89h1.37l0.53,3.07c0.04,0.27,0.08,0.55,0.12,0.83c0.04,0.28,0.07,0.56,0.1,0.85h0.05
			c0.04-0.29,0.09-0.57,0.14-0.85c0.05-0.28,0.11-0.56,0.17-0.83l0.55-2.5h1.13l0.53,2.5c0.06,0.27,0.13,0.55,0.19,0.83
			c0.06,0.28,0.11,0.56,0.14,0.85h0.05c0.05-0.29,0.08-0.57,0.11-0.85c0.02-0.28,0.06-0.56,0.11-0.83l0.52-3.07h1.28l-1.09,5.89
			h-1.68l-0.49-2.35c-0.04-0.24-0.08-0.5-0.13-0.79c-0.04-0.28-0.09-0.6-0.13-0.95h-0.05c-0.04,0.3-0.08,0.6-0.11,0.88
			c-0.04,0.28-0.08,0.57-0.14,0.86l-0.47,2.35H65.87z"/>
	</g>
</g>
<g>
	<path class="st0" d="M5.92,8.4c0.99-0.99,2.72-0.99,3.72,0l0.62,0.62l1.24-1.24l-0.62-0.62c-0.83-0.83-1.93-1.28-3.1-1.28
		s-2.27,0.46-3.1,1.28L2.82,9.02c-1.71,1.71-1.71,4.48,0,6.19c0.82,0.82,1.93,1.28,3.1,1.28c1.16,0,2.28-0.46,3.1-1.28l0.62-0.62
		L8.4,13.35l-0.62,0.62C6.75,15,5.09,15,4.06,13.97c-1.02-1.03-1.02-2.69,0-3.72C4.06,10.26,5.92,8.4,5.92,8.4z"/>
	<path class="st0" d="M9.02,2.83L8.4,3.44l1.24,1.24l0.62-0.62c1.03-1.02,2.69-1.02,3.72,0c1.02,1.03,1.02,2.69,0,3.72l-1.86,1.86
		c-0.99,0.99-2.72,0.99-3.72,0L7.78,9.02l-1.24,1.24l0.62,0.62c0.83,0.83,1.93,1.28,3.1,1.28s2.27-0.46,3.1-1.28l1.86-1.86
		c1.71-1.71,1.71-4.48,0-6.19C13.5,1.12,10.73,1.12,9.02,2.83z"/>
</g>
</svg>
