<?xml version="1.0" encoding="utf-8"?>
<!-- Generator: Adobe Illustrator 27.8.0, SVG Export Plug-In . SVG Version: 6.00 Build 0)  -->
<svg version="1.1" id="Layer_1" xmlns="http://www.w3.org/2000/svg" xmlns:xlink="http://www.w3.org/1999/xlink" x="0px" y="0px"
	 viewBox="0 0 85.88 18.04" style="enable-background:new 0 0 85.88 18.04;" xml:space="preserve">
<style type="text/css">
	.st0{fill:#FFFFFF;}
</style>
<g>
	<g>
		<path class="st0" d="M9,4.37C6.44,4.37,4.37,6.44,4.37,9S6.44,13.62,9,13.62s4.62-2.07,4.62-4.62S11.55,4.37,9,4.37z M9,12
			c-1.66,0-3-1.34-3.01-3c0-1.66,1.34-3,3-3.01c0,0,0,0,0,0c1.66,0,3,1.35,3,3.01C12,10.65,10.66,12,9,12z"/>
		<circle class="st0" cx="13.8" cy="4.2" r="1.08"/>
		<path class="st0" d="M17.53,3.11c-0.47-1.21-1.42-2.16-2.63-2.63c-0.7-0.26-1.44-0.4-2.19-0.42C11.75,0.01,11.44,0,9,0
			S6.25,0,5.29,0.05C4.55,0.07,3.81,0.21,3.11,0.47C1.9,0.94,0.94,1.9,0.47,3.11c-0.26,0.7-0.4,1.44-0.42,2.19C0.01,6.25,0,6.56,0,9
			c0,2.44,0,2.75,0.06,3.71c0.02,0.75,0.16,1.49,0.42,2.19c0.47,1.21,1.42,2.16,2.63,2.63c0.7,0.27,1.44,0.43,2.18,0.45
			c0.96,0.04,1.27,0.06,3.71,0.06s2.76,0,3.71-0.06c0.75-0.02,1.49-0.16,2.19-0.42c1.21-0.47,2.16-1.42,2.63-2.63
			c0.26-0.7,0.4-1.44,0.42-2.19c0.04-0.96,0.06-1.27,0.06-3.71s0-2.75-0.06-3.71C17.94,4.57,17.8,3.82,17.53,3.11z M16.31,12.64
			c-0.01,0.58-0.11,1.15-0.31,1.69c-0.3,0.79-0.93,1.41-1.71,1.71c-0.53,0.2-1.1,0.3-1.67,0.31c-0.95,0.04-1.22,0.06-3.65,0.06
			c-2.44,0-2.69,0-3.65-0.06c-0.57-0.01-1.13-0.11-1.67-0.31c-0.79-0.3-1.41-0.92-1.72-1.71c-0.2-0.53-0.3-1.1-0.31-1.67
			C1.57,11.71,1.56,11.44,1.56,9c0-2.44,0-2.69,0.05-3.65C1.62,4.77,1.72,4.2,1.92,3.66c0.3-0.79,0.93-1.41,1.72-1.71
			c0.53-0.2,1.1-0.3,1.67-0.31c0.95-0.04,1.22-0.05,3.65-0.05s2.69,0,3.65,0.05c0.57,0.01,1.14,0.11,1.67,0.31
			c0.79,0.3,1.41,0.93,1.71,1.71c0.2,0.53,0.3,1.1,0.31,1.67c0.04,0.95,0.05,1.22,0.05,3.65c0,2.44,0,2.7-0.04,3.65L16.31,12.64
			L16.31,12.64z"/>
	</g>
	<g>
		<path class="st0" d="M22.49,12.87v-1.18h1.9V6.2h-1.9V5.02h5.18V6.2h-1.9v5.5h1.9v1.18H22.49z"/>
		<path class="st0" d="M29.67,12.87V6.98h1.14l0.11,0.89h0.05c0.28-0.29,0.59-0.53,0.93-0.73c0.34-0.2,0.74-0.3,1.19-0.3
			c0.68,0,1.18,0.21,1.5,0.62c0.32,0.42,0.48,1,0.48,1.76v3.65h-1.39V9.4c0-0.47-0.08-0.82-0.25-1.04
			c-0.17-0.22-0.45-0.34-0.85-0.34c-0.29,0-0.54,0.07-0.77,0.2c-0.22,0.14-0.47,0.34-0.74,0.62v4.02H29.67z"/>
		<path class="st0" d="M39.52,13.01c-0.55,0-1.08-0.09-1.58-0.27S37,12.35,36.63,12.1l0.6-0.88c0.35,0.23,0.73,0.41,1.14,0.55
			c0.41,0.13,0.85,0.2,1.33,0.2c0.41,0,0.71-0.07,0.91-0.21s0.29-0.31,0.29-0.5c0-0.1-0.02-0.18-0.07-0.26
			c-0.04-0.08-0.12-0.15-0.23-0.22c-0.11-0.07-0.28-0.13-0.49-0.2c-0.22-0.06-0.5-0.13-0.84-0.2c-0.78-0.17-1.36-0.4-1.73-0.68
			c-0.37-0.29-0.55-0.65-0.55-1.09c0-0.52,0.23-0.94,0.68-1.27c0.45-0.33,1.09-0.49,1.91-0.49c0.49,0,0.95,0.08,1.37,0.24
			c0.43,0.16,0.79,0.34,1.09,0.54L41.4,8.47c-0.28-0.19-0.59-0.34-0.92-0.44s-0.68-0.15-1.02-0.15c-0.26,0-0.47,0.03-0.63,0.08
			c-0.16,0.06-0.27,0.13-0.35,0.23s-0.11,0.21-0.11,0.33c0,0.21,0.12,0.36,0.36,0.47s0.63,0.22,1.18,0.34
			c0.63,0.14,1.12,0.29,1.46,0.46c0.34,0.17,0.58,0.37,0.71,0.59c0.13,0.22,0.2,0.49,0.2,0.81c0,0.34-0.11,0.64-0.32,0.92
			c-0.21,0.28-0.52,0.5-0.93,0.66C40.62,12.93,40.12,13.01,39.52,13.01z"/>
		<path class="st0" d="M47.78,13.01c-0.6,0-1.08-0.11-1.43-0.32c-0.35-0.21-0.6-0.51-0.76-0.88c-0.15-0.38-0.23-0.81-0.23-1.31V8.08
			H43.8V7.05l1.61-0.07l0.19-1.85h1.13v1.85h2.7v1.1h-2.7v2.41c0,0.32,0.04,0.59,0.13,0.8c0.09,0.21,0.23,0.37,0.44,0.47
			s0.47,0.15,0.8,0.15c0.26,0,0.49-0.02,0.7-0.06s0.4-0.1,0.59-0.17l0.29,1c-0.26,0.09-0.55,0.17-0.86,0.23
			C48.51,12.98,48.16,13.01,47.78,13.01z"/>
		<path class="st0" d="M53.1,13.01c-0.38,0-0.72-0.07-1.02-0.22s-0.53-0.35-0.7-0.61c-0.17-0.26-0.25-0.56-0.25-0.9
			c0-0.66,0.31-1.16,0.94-1.51c0.63-0.35,1.67-0.57,3.13-0.68c-0.02-0.22-0.07-0.41-0.17-0.59c-0.1-0.18-0.25-0.31-0.45-0.41
			s-0.46-0.15-0.78-0.15c-0.22,0-0.44,0.03-0.66,0.08c-0.22,0.06-0.43,0.13-0.64,0.23c-0.21,0.1-0.42,0.2-0.63,0.31l-0.5-0.92
			c0.24-0.14,0.5-0.28,0.79-0.4s0.59-0.22,0.91-0.3c0.32-0.08,0.65-0.11,0.98-0.11c0.55,0,1.01,0.1,1.39,0.29
			c0.37,0.2,0.66,0.48,0.85,0.86s0.29,0.84,0.29,1.39v3.49h-1.13l-0.11-0.73h-0.04c-0.31,0.24-0.66,0.45-1.04,0.62
			C53.89,12.93,53.5,13.01,53.1,13.01z M53.52,11.93c0.3,0,0.58-0.07,0.86-0.2c0.28-0.13,0.55-0.31,0.82-0.52V9.97
			c-0.7,0.05-1.26,0.13-1.66,0.23c-0.4,0.11-0.68,0.25-0.84,0.41s-0.24,0.36-0.24,0.56c0,0.18,0.05,0.32,0.14,0.43
			c0.1,0.11,0.22,0.19,0.38,0.25C53.15,11.91,53.32,11.93,53.52,11.93z"/>
		<path class="st0" d="M60.92,15.49c-0.54,0-1.02-0.06-1.42-0.18s-0.72-0.3-0.94-0.53c-0.22-0.23-0.33-0.52-0.33-0.88
			c0-0.23,0.08-0.46,0.24-0.67c0.16-0.22,0.4-0.4,0.71-0.56v-0.05c-0.16-0.1-0.3-0.22-0.42-0.38c-0.12-0.16-0.18-0.36-0.18-0.62
			c0-0.19,0.06-0.39,0.19-0.58c0.12-0.2,0.29-0.37,0.51-0.51v-0.05c-0.21-0.15-0.39-0.36-0.53-0.62c-0.15-0.26-0.22-0.57-0.22-0.91
			c0-0.45,0.11-0.83,0.34-1.14c0.22-0.31,0.52-0.55,0.89-0.72s0.77-0.25,1.19-0.25c0.34,0,0.65,0.05,0.92,0.14h2.42v1.06h-1.37
			c0.1,0.1,0.19,0.24,0.27,0.42c0.08,0.18,0.11,0.36,0.11,0.55c0,0.44-0.1,0.81-0.31,1.1c-0.21,0.29-0.49,0.52-0.85,0.67
			c-0.36,0.16-0.76,0.23-1.21,0.23c-0.13,0-0.27-0.01-0.43-0.04c-0.16-0.03-0.31-0.07-0.47-0.13c-0.12,0.07-0.21,0.15-0.27,0.24
			c-0.06,0.09-0.09,0.19-0.09,0.31c0,0.18,0.09,0.32,0.28,0.42c0.19,0.1,0.47,0.14,0.83,0.14H62c0.77,0,1.35,0.11,1.74,0.32
			c0.39,0.22,0.59,0.58,0.59,1.1c0,0.39-0.14,0.74-0.42,1.06s-0.67,0.56-1.18,0.76C62.21,15.39,61.61,15.49,60.92,15.49z
			 M61.07,14.55c0.39,0,0.73-0.04,1.01-0.13c0.28-0.09,0.5-0.2,0.66-0.34c0.16-0.14,0.23-0.29,0.23-0.45c0-0.24-0.1-0.4-0.29-0.47
			c-0.2-0.08-0.49-0.11-0.89-0.11h-0.94c-0.19,0-0.36-0.01-0.5-0.02c-0.14-0.02-0.28-0.04-0.4-0.06c-0.21,0.12-0.36,0.24-0.44,0.37
			c-0.09,0.12-0.13,0.26-0.13,0.4c0,0.26,0.15,0.47,0.44,0.61S60.54,14.55,61.07,14.55z M60.94,10.15c0.21,0,0.4-0.05,0.57-0.14
			c0.17-0.1,0.31-0.23,0.4-0.41c0.1-0.18,0.14-0.39,0.14-0.65c0-0.23-0.05-0.44-0.14-0.61c-0.1-0.18-0.23-0.31-0.4-0.41
			c-0.17-0.1-0.36-0.14-0.57-0.14c-0.19,0-0.37,0.05-0.55,0.14c-0.17,0.1-0.31,0.23-0.41,0.41c-0.1,0.18-0.16,0.38-0.16,0.61
			c0,0.26,0.05,0.47,0.16,0.65c0.1,0.18,0.24,0.31,0.41,0.41C60.57,10.1,60.75,10.15,60.94,10.15z"/>
		<path class="st0" d="M66.24,12.87V6.98h1.14l0.12,1.33h0.04c0.3-0.48,0.66-0.85,1.1-1.1c0.44-0.25,0.91-0.38,1.41-0.38
			c0.24,0,0.45,0.02,0.62,0.06c0.18,0.04,0.35,0.1,0.52,0.18L70.9,8.24c-0.19-0.06-0.36-0.11-0.51-0.14
			c-0.15-0.03-0.33-0.04-0.56-0.04c-0.4,0-0.79,0.12-1.17,0.35s-0.72,0.64-1.03,1.21v3.25H66.24z"/>
		<path class="st0" d="M74.7,13.01c-0.38,0-0.72-0.07-1.02-0.22s-0.53-0.35-0.7-0.61c-0.17-0.26-0.25-0.56-0.25-0.9
			c0-0.66,0.31-1.16,0.94-1.51c0.63-0.35,1.67-0.57,3.13-0.68c-0.02-0.22-0.07-0.41-0.17-0.59c-0.1-0.18-0.25-0.31-0.45-0.41
			s-0.46-0.15-0.78-0.15c-0.22,0-0.44,0.03-0.66,0.08c-0.22,0.06-0.43,0.13-0.64,0.23c-0.21,0.1-0.42,0.2-0.63,0.31l-0.5-0.92
			c0.24-0.14,0.5-0.28,0.79-0.4s0.59-0.22,0.91-0.3c0.32-0.08,0.65-0.11,0.98-0.11c0.55,0,1.01,0.1,1.39,0.29
			c0.37,0.2,0.66,0.48,0.85,0.86s0.29,0.84,0.29,1.39v3.49h-1.13l-0.11-0.73h-0.04c-0.31,0.24-0.66,0.45-1.04,0.62
			C75.49,12.93,75.1,13.01,74.7,13.01z M75.12,11.93c0.3,0,0.58-0.07,0.86-0.2c0.28-0.13,0.55-0.31,0.82-0.52V9.97
			c-0.7,0.05-1.26,0.13-1.66,0.23c-0.4,0.11-0.68,0.25-0.84,0.41s-0.24,0.36-0.24,0.56c0,0.18,0.05,0.32,0.14,0.43
			c0.1,0.11,0.22,0.19,0.38,0.25C74.75,11.91,74.92,11.93,75.12,11.93z"/>
		<path class="st0" d="M79.63,12.87V6.98h1.07l0.11,0.76h0.02c0.14-0.26,0.3-0.48,0.5-0.65s0.47-0.25,0.8-0.25
			c0.28,0,0.51,0.08,0.69,0.25s0.31,0.42,0.39,0.74c0.14-0.3,0.31-0.54,0.52-0.72s0.49-0.28,0.82-0.28c0.42,0,0.74,0.16,0.97,0.49
			c0.23,0.32,0.34,0.78,0.34,1.37v4.18h-1.34V8.79c0-0.52-0.15-0.78-0.46-0.78c-0.16,0-0.29,0.06-0.4,0.18
			c-0.11,0.12-0.22,0.31-0.34,0.56v4.12h-1.14V8.79c0-0.26-0.04-0.45-0.11-0.58c-0.08-0.13-0.2-0.2-0.37-0.2
			c-0.15,0-0.28,0.06-0.4,0.18c-0.11,0.12-0.22,0.31-0.34,0.56v4.12H79.63z"/>
	</g>
</g>
</svg>
