<?xml version="1.0" encoding="utf-8"?>
<!-- Generator: Adobe Illustrator 27.8.0, SVG Export Plug-In . SVG Version: 6.00 Build 0)  -->
<svg version="1.1" id="Layer_1" xmlns="http://www.w3.org/2000/svg" xmlns:xlink="http://www.w3.org/1999/xlink" x="0px" y="0px"
	 viewBox="0 0 24 24" style="enable-background:new 0 0 24 24;" xml:space="preserve">
<style type="text/css">
	.st0{fill:#FFFFFF;}
</style>
<path class="st0" d="M11.99,2C6.47,2,2,6.47,2,11.99c0,4.23,2.63,7.85,6.35,9.31c-0.09-0.79-0.17-2.01,0.03-2.87
	c0.18-0.78,1.17-4.97,1.17-4.97s-0.3-0.6-0.3-1.48c0-1.39,0.81-2.43,1.81-2.43c0.85,0,1.26,0.64,1.26,1.41
	c0,0.86-0.55,2.14-0.83,3.33c-0.23,0.99,0.5,1.81,1.48,1.81c1.77,0,3.14-1.87,3.14-4.57c0-2.39-1.72-4.06-4.17-4.06
	c-2.84,0-4.51,2.13-4.51,4.34c0,0.86,0.33,1.78,0.74,2.28c0.07,0.08,0.1,0.19,0.07,0.29c-0.08,0.31-0.24,0.99-0.28,1.13
	c-0.04,0.18-0.14,0.22-0.34,0.13c-1.25-0.58-2.03-2.4-2.03-3.87c0-3.15,2.29-6.05,6.6-6.05c3.47,0,6.16,2.47,6.16,5.77
	c0,3.44-2.17,6.21-5.18,6.21c-1.01,0-1.96-0.52-2.29-1.15l-0.62,2.37c-0.23,0.87-0.83,1.96-1.24,2.62c0.96,0.3,1.96,0.45,2.96,0.44
	c5.52,0,9.99-4.47,9.99-9.99S17.51,2,11.99,2"/>
</svg>
