<?xml version="1.0" encoding="utf-8"?>
<!-- Generator: Adobe Illustrator 27.8.0, SVG Export Plug-In . SVG Version: 6.00 Build 0)  -->
<svg version="1.1" id="Layer_1" xmlns="http://www.w3.org/2000/svg" xmlns:xlink="http://www.w3.org/1999/xlink" x="0px" y="0px"
	 viewBox="0 0 24 24" style="enable-background:new 0 0 24 24;" xml:space="preserve">
<style type="text/css">
	.st0{fill:#FFFFFF;}
</style>
<path class="st0" d="M12,7.38c-2.55,0-4.62,2.07-4.62,4.62s2.07,4.62,4.62,4.62s4.62-2.07,4.62-4.62S14.55,7.38,12,7.38z M12,15
	c-1.66,0-3-1.34-3.01-3c0-1.66,1.34-3,3-3.01c0,0,0,0,0,0c1.66,0,3,1.35,3,3.01C15,13.66,13.66,15,12,15z"/>
<circle class="st0" cx="16.81" cy="7.21" r="1.08"/>
<path class="st0" d="M20.53,6.11c-0.47-1.21-1.42-2.16-2.63-2.63c-0.7-0.26-1.44-0.4-2.19-0.42C14.75,3.02,14.45,3.01,12,3.01
	s-2.76,0-3.71,0.05C7.55,3.07,6.81,3.22,6.11,3.48C4.9,3.95,3.94,4.9,3.48,6.11c-0.26,0.7-0.4,1.44-0.42,2.19
	C3.01,9.26,3,9.56,3,12.01c0,2.44,0,2.75,0.06,3.71c0.02,0.75,0.16,1.49,0.42,2.19c0.47,1.21,1.42,2.16,2.63,2.63
	c0.7,0.27,1.44,0.43,2.18,0.45c0.96,0.04,1.27,0.06,3.71,0.06s2.76,0,3.71-0.06c0.75-0.02,1.49-0.16,2.19-0.42
	c1.21-0.47,2.16-1.42,2.63-2.63c0.26-0.7,0.4-1.44,0.42-2.19c0.04-0.96,0.06-1.27,0.06-3.71s0-2.75-0.06-3.71
	C20.94,7.57,20.8,6.82,20.53,6.11z M19.32,15.64c-0.01,0.58-0.11,1.15-0.31,1.69c-0.3,0.79-0.93,1.41-1.71,1.71
	c-0.53,0.2-1.1,0.3-1.67,0.31c-0.95,0.04-1.22,0.06-3.65,0.06c-2.44,0-2.69,0-3.65-0.06c-0.57-0.01-1.13-0.11-1.67-0.31
	c-0.79-0.3-1.41-0.92-1.72-1.71c-0.2-0.53-0.3-1.1-0.31-1.67c-0.04-0.95-0.05-1.22-0.05-3.65c0-2.44,0-2.69,0.05-3.65
	c0.01-0.58,0.11-1.15,0.31-1.69c0.3-0.79,0.93-1.41,1.72-1.71c0.53-0.2,1.1-0.3,1.67-0.31c0.95-0.04,1.22-0.05,3.65-0.05
	s2.69,0,3.65,0.05c0.57,0.01,1.14,0.11,1.67,0.31c0.79,0.3,1.41,0.93,1.71,1.71c0.2,0.53,0.3,1.1,0.31,1.67
	c0.04,0.95,0.05,1.22,0.05,3.65c0,2.44,0,2.7-0.04,3.65L19.32,15.64L19.32,15.64z"/>
</svg>
