<?xml version="1.0" encoding="utf-8"?>
<!-- Generator: Adobe Illustrator 27.8.0, SVG Export Plug-In . SVG Version: 6.00 Build 0)  -->
<svg version="1.1" id="Layer_1" xmlns="http://www.w3.org/2000/svg" xmlns:xlink="http://www.w3.org/1999/xlink" x="0px" y="0px"
	 viewBox="0 0 185.94 18.04" style="enable-background:new 0 0 185.94 18.04;" xml:space="preserve">
<style type="text/css">
	.st0{fill:#FFFFFF;}
</style>
<g>
	<g>
		<path class="st0" d="M30.02,13.28l-2.45-7.85h1.48l1.1,3.95c0.14,0.44,0.25,0.86,0.35,1.27c0.1,0.4,0.21,0.83,0.34,1.29h0.05
			c0.14-0.46,0.25-0.89,0.35-1.29s0.21-0.83,0.33-1.27l1.09-3.95h1.43l-2.44,7.85C31.65,13.28,30.02,13.28,30.02,13.28z"/>
		<path class="st0" d="M38,13.28V8.49h-2.56v-1.1h3.94v5.89H38z M38.59,6.31c-0.28,0-0.51-0.08-0.7-0.25
			c-0.19-0.17-0.29-0.4-0.29-0.68c0-0.28,0.09-0.51,0.28-0.68c0.19-0.17,0.42-0.26,0.7-0.26c0.29,0,0.52,0.09,0.71,0.26
			c0.18,0.17,0.28,0.4,0.28,0.68c0,0.28-0.09,0.5-0.28,0.67C39.11,6.22,38.87,6.31,38.59,6.31z"/>
		<path class="st0" d="M46.44,13.42c-0.69,0-1.21-0.2-1.57-0.61c-0.36-0.4-0.53-0.97-0.53-1.69V5.9h-1.92V4.81h3.3v6.4
			c0,0.4,0.1,0.68,0.31,0.85c0.2,0.17,0.45,0.25,0.75,0.25c0.15,0,0.31-0.02,0.47-0.06s0.34-0.1,0.54-0.18l0.32,1.02
			c-0.29,0.1-0.55,0.18-0.79,0.24C47.08,13.39,46.79,13.42,46.44,13.42z"/>
		<path class="st0" d="M53.64,13.42c-0.69,0-1.21-0.2-1.57-0.61c-0.36-0.4-0.53-0.97-0.53-1.69V5.9h-1.92V4.81h3.3v6.4
			c0,0.4,0.1,0.68,0.31,0.85c0.2,0.17,0.45,0.25,0.75,0.25c0.15,0,0.31-0.02,0.47-0.06s0.34-0.1,0.54-0.18l0.32,1.02
			c-0.29,0.1-0.55,0.18-0.79,0.24C54.28,13.39,53.99,13.42,53.64,13.42z"/>
		<path class="st0" d="M59.99,13.42c-0.6,0-1.14-0.12-1.63-0.37c-0.49-0.24-0.88-0.6-1.16-1.06c-0.29-0.46-0.43-1.02-0.43-1.67
			c0-0.64,0.14-1.19,0.43-1.65s0.66-0.81,1.13-1.06s0.96-0.37,1.49-0.37c0.58,0,1.08,0.12,1.48,0.36c0.4,0.24,0.71,0.57,0.92,0.99
			s0.32,0.9,0.32,1.45c0,0.14,0,0.27-0.01,0.4c-0.01,0.13-0.02,0.23-0.04,0.3h-4.73V9.76h3.83l-0.26,0.3c0-0.58-0.13-1.02-0.39-1.32
			S60.32,8.3,59.85,8.3c-0.33,0-0.62,0.08-0.88,0.23c-0.26,0.16-0.47,0.38-0.62,0.68c-0.15,0.3-0.23,0.67-0.23,1.1
			c0,0.46,0.09,0.85,0.26,1.15c0.17,0.3,0.41,0.52,0.72,0.67s0.67,0.22,1.07,0.22c0.31,0,0.6-0.04,0.86-0.13
			c0.26-0.09,0.53-0.21,0.79-0.36l0.47,0.86c-0.31,0.2-0.67,0.37-1.06,0.5C60.84,13.36,60.42,13.42,59.99,13.42z"/>
		<path class="st0" d="M66.66,15.89c-0.54,0-1.02-0.06-1.42-0.18s-0.72-0.3-0.94-0.53s-0.33-0.52-0.33-0.88
			c0-0.23,0.08-0.46,0.24-0.67c0.16-0.22,0.4-0.4,0.71-0.56v-0.05c-0.16-0.1-0.3-0.22-0.42-0.38c-0.12-0.16-0.18-0.36-0.18-0.62
			c0-0.19,0.06-0.39,0.19-0.58c0.12-0.2,0.29-0.37,0.51-0.51v-0.05c-0.21-0.15-0.39-0.36-0.53-0.62C64.34,10,64.26,9.7,64.26,9.35
			c0-0.45,0.11-0.83,0.34-1.14c0.22-0.31,0.52-0.55,0.89-0.72s0.77-0.25,1.19-0.25c0.34,0,0.65,0.05,0.92,0.14h2.42v1.06h-1.37
			c0.1,0.1,0.19,0.24,0.27,0.42c0.08,0.18,0.11,0.36,0.11,0.55c0,0.44-0.1,0.81-0.31,1.1s-0.49,0.52-0.85,0.67
			c-0.36,0.16-0.76,0.23-1.21,0.23c-0.13,0-0.27-0.01-0.43-0.04s-0.31-0.07-0.47-0.13c-0.12,0.07-0.21,0.15-0.27,0.24
			s-0.09,0.19-0.09,0.31c0,0.18,0.09,0.32,0.28,0.42s0.47,0.14,0.83,0.14h1.2c0.77,0,1.35,0.11,1.74,0.32
			c0.39,0.22,0.59,0.58,0.59,1.1c0,0.39-0.14,0.74-0.42,1.06s-0.67,0.56-1.18,0.76C67.96,15.8,67.36,15.89,66.66,15.89z
			 M66.82,14.96c0.39,0,0.73-0.04,1.01-0.13s0.5-0.2,0.66-0.34s0.23-0.29,0.23-0.45c0-0.24-0.1-0.4-0.29-0.47
			c-0.2-0.08-0.49-0.11-0.89-0.11H66.6c-0.19,0-0.36-0.01-0.5-0.02c-0.14-0.02-0.28-0.04-0.4-0.06c-0.21,0.12-0.36,0.24-0.44,0.37
			c-0.09,0.12-0.13,0.26-0.13,0.4c0,0.26,0.15,0.47,0.44,0.61S66.28,14.96,66.82,14.96z M66.69,10.55c0.21,0,0.4-0.05,0.57-0.14
			c0.17-0.1,0.31-0.23,0.4-0.41c0.1-0.18,0.14-0.39,0.14-0.65c0-0.23-0.05-0.44-0.14-0.61c-0.1-0.18-0.23-0.31-0.4-0.41
			c-0.17-0.1-0.36-0.14-0.57-0.14c-0.19,0-0.37,0.05-0.55,0.14c-0.17,0.1-0.31,0.23-0.41,0.41c-0.1,0.18-0.16,0.38-0.16,0.61
			c0,0.26,0.05,0.47,0.16,0.65c0.1,0.18,0.24,0.31,0.41,0.41C66.31,10.51,66.5,10.55,66.69,10.55z"/>
		<path class="st0" d="M73.25,13.42c-0.38,0-0.72-0.07-1.02-0.22s-0.53-0.35-0.7-0.61c-0.17-0.26-0.25-0.56-0.25-0.9
			c0-0.66,0.31-1.16,0.94-1.51c0.63-0.35,1.67-0.57,3.13-0.68c-0.02-0.22-0.07-0.41-0.17-0.59S74.93,8.6,74.73,8.5
			s-0.46-0.15-0.78-0.15c-0.22,0-0.44,0.03-0.66,0.08c-0.22,0.06-0.43,0.13-0.64,0.23c-0.21,0.1-0.42,0.2-0.63,0.31l-0.5-0.92
			c0.24-0.14,0.5-0.28,0.79-0.4s0.59-0.22,0.91-0.3c0.32-0.08,0.65-0.11,0.98-0.11c0.55,0,1.01,0.1,1.39,0.29
			c0.37,0.2,0.66,0.48,0.85,0.86s0.29,0.84,0.29,1.39v3.49H75.6l-0.11-0.73h-0.04c-0.31,0.24-0.66,0.45-1.04,0.62
			C74.04,13.34,73.65,13.42,73.25,13.42z M73.67,12.34c0.3,0,0.58-0.07,0.86-0.2s0.55-0.31,0.82-0.52v-1.25
			c-0.7,0.05-1.26,0.13-1.66,0.23c-0.4,0.11-0.68,0.25-0.84,0.41s-0.24,0.36-0.24,0.56c0,0.18,0.05,0.32,0.14,0.43
			c0.1,0.11,0.22,0.19,0.38,0.25C73.3,12.32,73.47,12.34,73.67,12.34z"/>
		<path class="st0" d="M81.27,13.42c-0.55,0-1.08-0.09-1.58-0.27s-0.94-0.39-1.31-0.64l0.6-0.88c0.35,0.23,0.73,0.41,1.14,0.55
			c0.41,0.13,0.85,0.2,1.33,0.2c0.41,0,0.71-0.07,0.91-0.21s0.29-0.31,0.29-0.5c0-0.1-0.02-0.18-0.07-0.26
			c-0.04-0.08-0.12-0.15-0.23-0.22c-0.11-0.07-0.28-0.13-0.49-0.2c-0.22-0.06-0.5-0.13-0.84-0.2c-0.78-0.17-1.36-0.4-1.73-0.68
			c-0.37-0.29-0.55-0.65-0.55-1.09c0-0.52,0.23-0.94,0.68-1.27c0.45-0.33,1.09-0.49,1.91-0.49c0.49,0,0.95,0.08,1.37,0.24
			c0.43,0.16,0.79,0.34,1.09,0.54l-0.64,0.85c-0.28-0.19-0.59-0.34-0.92-0.44S81.55,8.3,81.21,8.3c-0.26,0-0.47,0.03-0.63,0.08
			c-0.16,0.06-0.27,0.13-0.35,0.23s-0.11,0.21-0.11,0.33c0,0.21,0.12,0.36,0.36,0.47s0.63,0.22,1.18,0.34
			c0.63,0.14,1.12,0.29,1.46,0.46s0.58,0.37,0.71,0.59s0.2,0.49,0.2,0.81c0,0.34-0.11,0.64-0.32,0.92s-0.52,0.5-0.93,0.66
			C82.37,13.34,81.87,13.42,81.27,13.42z"/>
		<path class="st0" d="M85.82,13.28V4.81h1.39v2.18l-0.08,1.26h0.04c0.26-0.27,0.55-0.51,0.89-0.71s0.73-0.3,1.18-0.3
			c0.68,0,1.18,0.21,1.5,0.62c0.32,0.42,0.48,1,0.48,1.76v3.65h-1.39V9.81c0-0.47-0.08-0.82-0.25-1.04s-0.45-0.34-0.85-0.34
			c-0.29,0-0.54,0.07-0.77,0.2c-0.22,0.14-0.47,0.34-0.74,0.62v4.02L85.82,13.28L85.82,13.28z"/>
		<path class="st0" d="M95.63,13.42c-0.58,0-1.08-0.16-1.5-0.47s-0.75-0.76-0.98-1.36C92.92,11,92.8,10.27,92.8,9.42
			c0-1.29,0.26-2.26,0.77-2.93s1.2-1,2.06-1c0.87,0,1.56,0.33,2.07,1s0.76,1.64,0.76,2.93c0,0.86-0.11,1.58-0.34,2.17
			c-0.23,0.59-0.55,1.04-0.98,1.36C96.72,13.27,96.22,13.42,95.63,13.42z M95.63,12.34c0.3,0,0.58-0.1,0.82-0.29
			c0.24-0.2,0.43-0.51,0.56-0.94c0.14-0.43,0.2-0.99,0.2-1.69c0-0.7-0.07-1.25-0.2-1.67c-0.14-0.42-0.32-0.72-0.56-0.9
			s-0.51-0.28-0.82-0.28c-0.3,0-0.58,0.09-0.82,0.28s-0.43,0.48-0.56,0.9s-0.2,0.97-0.2,1.67s0.07,1.26,0.2,1.69
			c0.14,0.43,0.32,0.74,0.56,0.94C95.06,12.24,95.33,12.34,95.63,12.34z M95.63,10.23c-0.22,0-0.42-0.08-0.58-0.23
			S94.8,9.64,94.8,9.38s0.08-0.47,0.25-0.62s0.36-0.23,0.58-0.23c0.23,0,0.43,0.08,0.59,0.23c0.16,0.15,0.24,0.36,0.24,0.62
			S96.38,9.85,96.22,10C96.06,10.15,95.86,10.23,95.63,10.23z"/>
		<path class="st0" d="M100.29,13.28v-1.13h2.12V7.13h-1.69V6.27c0.32-0.05,0.6-0.1,0.84-0.16s0.46-0.12,0.65-0.2
			c0.2-0.08,0.39-0.17,0.57-0.26h1.01v6.5h1.87v1.13C105.66,13.28,100.29,13.28,100.29,13.28z"/>
		<path class="st0" d="M107.21,13.28v-0.8c0.8-0.69,1.49-1.3,2.06-1.84s1.01-1.03,1.32-1.47c0.31-0.44,0.46-0.86,0.46-1.25
			c0-0.41-0.12-0.73-0.37-0.97c-0.25-0.24-0.61-0.35-1.09-0.35c-0.33,0-0.63,0.08-0.91,0.25s-0.54,0.37-0.77,0.6l-0.76-0.77
			c0.37-0.38,0.76-0.67,1.16-0.87c0.41-0.2,0.89-0.31,1.45-0.31c0.53,0,0.99,0.1,1.37,0.29c0.39,0.19,0.69,0.46,0.91,0.82
			s0.32,0.76,0.32,1.24c0,0.45-0.14,0.91-0.42,1.37c-0.28,0.47-0.66,0.95-1.13,1.43c-0.48,0.49-1.01,1-1.6,1.54
			c0.22-0.02,0.46-0.04,0.71-0.06s0.48-0.02,0.68-0.02h2.16v1.18L107.21,13.28L107.21,13.28z"/>
		<path class="st0" d="M117.71,15.03c-0.48,0-0.94-0.1-1.37-0.3s-0.82-0.5-1.15-0.89c-0.34-0.4-0.6-0.89-0.79-1.49
			c-0.19-0.6-0.29-1.29-0.29-2.09c0-1.05,0.16-1.92,0.48-2.6s0.75-1.2,1.29-1.54s1.14-0.51,1.79-0.51c0.58,0,1.06,0.13,1.43,0.38
			c0.37,0.26,0.65,0.6,0.83,1.04s0.27,0.93,0.27,1.48v3.58h-0.77l-0.11-0.65h-0.05c-0.17,0.22-0.38,0.4-0.64,0.56
			c-0.26,0.16-0.55,0.23-0.87,0.23c-0.29,0-0.55-0.07-0.78-0.21c-0.23-0.14-0.42-0.33-0.55-0.58c-0.14-0.24-0.2-0.53-0.2-0.85
			c0-0.42,0.12-0.76,0.37-1.04s0.6-0.49,1.06-0.65s1.01-0.28,1.66-0.36V8.36c0-0.34-0.06-0.66-0.18-0.95s-0.3-0.52-0.55-0.69
			s-0.57-0.26-0.96-0.26c-0.32,0-0.63,0.08-0.93,0.23s-0.57,0.38-0.82,0.7s-0.44,0.71-0.58,1.19c-0.14,0.48-0.21,1.06-0.21,1.72
			c0,0.84,0.12,1.55,0.37,2.12s0.57,1.01,0.97,1.3s0.85,0.43,1.33,0.43c0.35,0,0.66-0.04,0.91-0.13c0.26-0.09,0.5-0.21,0.72-0.36
			l0.43,0.71c-0.33,0.2-0.66,0.36-1,0.48C118.49,14.97,118.12,15.03,117.71,15.03z M118.07,11.3c0.2,0,0.39-0.05,0.58-0.16
			c0.18-0.11,0.36-0.25,0.54-0.44V9.39c-0.7,0.1-1.19,0.25-1.48,0.43s-0.43,0.43-0.43,0.75c0,0.22,0.07,0.4,0.22,0.53
			C117.64,11.23,117.83,11.3,118.07,11.3z"/>
		<path class="st0" d="M124.26,15.89c-0.54,0-1.02-0.06-1.42-0.18s-0.72-0.3-0.94-0.53s-0.33-0.52-0.33-0.88
			c0-0.23,0.08-0.46,0.24-0.67c0.16-0.22,0.4-0.4,0.71-0.56v-0.05c-0.16-0.1-0.3-0.22-0.42-0.38c-0.12-0.16-0.18-0.36-0.18-0.62
			c0-0.19,0.06-0.39,0.19-0.58c0.12-0.2,0.29-0.37,0.51-0.51v-0.05c-0.21-0.15-0.39-0.36-0.53-0.62c-0.15-0.26-0.22-0.57-0.22-0.91
			c0-0.45,0.11-0.83,0.34-1.14c0.22-0.31,0.52-0.55,0.89-0.72s0.77-0.25,1.19-0.25c0.34,0,0.65,0.05,0.92,0.14h2.42v1.06h-1.37
			c0.1,0.1,0.19,0.24,0.27,0.42c0.08,0.18,0.11,0.36,0.11,0.55c0,0.44-0.1,0.81-0.31,1.1s-0.49,0.52-0.85,0.67
			c-0.36,0.16-0.76,0.23-1.21,0.23c-0.13,0-0.27-0.01-0.43-0.04s-0.31-0.07-0.47-0.13c-0.12,0.07-0.21,0.15-0.27,0.24
			s-0.09,0.19-0.09,0.31c0,0.18,0.09,0.32,0.28,0.42s0.47,0.14,0.83,0.14h1.2c0.77,0,1.35,0.11,1.74,0.32
			c0.39,0.22,0.59,0.58,0.59,1.1c0,0.39-0.14,0.74-0.42,1.06s-0.67,0.56-1.18,0.76C125.56,15.8,124.96,15.89,124.26,15.89z
			 M124.42,14.96c0.39,0,0.73-0.04,1.01-0.13s0.5-0.2,0.66-0.34s0.23-0.29,0.23-0.45c0-0.24-0.1-0.4-0.29-0.47
			c-0.2-0.08-0.49-0.11-0.89-0.11h-0.94c-0.19,0-0.36-0.01-0.5-0.02c-0.14-0.02-0.28-0.04-0.4-0.06c-0.21,0.12-0.36,0.24-0.44,0.37
			c-0.09,0.12-0.13,0.26-0.13,0.4c0,0.26,0.15,0.47,0.44,0.61S123.88,14.96,124.42,14.96z M124.29,10.55c0.21,0,0.4-0.05,0.57-0.14
			c0.17-0.1,0.31-0.23,0.4-0.41c0.1-0.18,0.14-0.39,0.14-0.65c0-0.23-0.05-0.44-0.14-0.61c-0.1-0.18-0.23-0.31-0.4-0.41
			c-0.17-0.1-0.36-0.14-0.57-0.14c-0.19,0-0.37,0.05-0.55,0.14c-0.17,0.1-0.31,0.23-0.41,0.41c-0.1,0.18-0.16,0.38-0.16,0.61
			c0,0.26,0.05,0.47,0.16,0.65c0.1,0.18,0.24,0.31,0.41,0.41C123.91,10.51,124.1,10.55,124.29,10.55z"/>
		<path class="st0" d="M128.58,13.28V7.39h1.07l0.11,0.76h0.02c0.14-0.26,0.3-0.48,0.5-0.65s0.47-0.25,0.8-0.25
			c0.28,0,0.51,0.08,0.69,0.25s0.31,0.42,0.39,0.74c0.14-0.3,0.31-0.54,0.52-0.72s0.49-0.28,0.82-0.28c0.42,0,0.74,0.16,0.97,0.49
			c0.23,0.32,0.34,0.78,0.34,1.37v4.18h-1.34V9.2c0-0.52-0.15-0.78-0.46-0.78c-0.16,0-0.29,0.06-0.4,0.18s-0.22,0.31-0.34,0.56v4.12
			h-1.14V9.2c0-0.26-0.04-0.45-0.11-0.58c-0.08-0.13-0.2-0.2-0.37-0.2c-0.15,0-0.28,0.06-0.4,0.18c-0.11,0.12-0.22,0.31-0.34,0.56
			v4.12C129.91,13.28,128.58,13.28,128.58,13.28z"/>
		<path class="st0" d="M138.05,13.42c-0.38,0-0.72-0.07-1.02-0.22s-0.53-0.35-0.7-0.61c-0.17-0.26-0.25-0.56-0.25-0.9
			c0-0.66,0.31-1.16,0.94-1.51s1.67-0.57,3.13-0.68c-0.02-0.22-0.07-0.41-0.17-0.59c-0.1-0.18-0.25-0.31-0.45-0.41
			s-0.46-0.15-0.78-0.15c-0.22,0-0.44,0.03-0.66,0.08c-0.22,0.06-0.43,0.13-0.64,0.23c-0.21,0.1-0.42,0.2-0.63,0.31l-0.5-0.92
			c0.24-0.14,0.5-0.28,0.79-0.4s0.59-0.22,0.91-0.3c0.32-0.08,0.65-0.11,0.98-0.11c0.55,0,1.01,0.1,1.39,0.29
			c0.37,0.2,0.66,0.48,0.85,0.86s0.29,0.84,0.29,1.39v3.49h-1.13l-0.11-0.73h-0.04c-0.31,0.24-0.66,0.45-1.04,0.62
			C138.84,13.34,138.45,13.42,138.05,13.42z M138.47,12.34c0.3,0,0.58-0.07,0.86-0.2s0.55-0.31,0.82-0.52v-1.25
			c-0.7,0.05-1.26,0.13-1.66,0.23c-0.4,0.11-0.68,0.25-0.84,0.41s-0.24,0.36-0.24,0.56c0,0.18,0.05,0.32,0.14,0.43
			c0.1,0.11,0.22,0.19,0.38,0.25C138.09,12.32,138.27,12.34,138.47,12.34z"/>
		<path class="st0" d="M146,13.28V8.49h-2.56v-1.1h3.94v5.89H146z M146.58,6.31c-0.28,0-0.51-0.08-0.7-0.25s-0.28-0.39-0.28-0.67
			s0.09-0.51,0.28-0.68s0.42-0.26,0.7-0.26c0.29,0,0.52,0.09,0.71,0.26c0.18,0.17,0.28,0.4,0.28,0.68c0,0.28-0.09,0.5-0.28,0.67
			C147.11,6.22,146.87,6.31,146.58,6.31z"/>
		<path class="st0" d="M154.44,13.42c-0.69,0-1.21-0.2-1.57-0.61c-0.36-0.4-0.53-0.97-0.53-1.69V5.9h-1.92V4.81h3.3v6.4
			c0,0.4,0.1,0.68,0.31,0.85c0.2,0.17,0.45,0.25,0.75,0.25c0.15,0,0.31-0.02,0.47-0.06s0.34-0.1,0.54-0.18l0.32,1.02
			c-0.29,0.1-0.55,0.18-0.79,0.24C155.08,13.39,154.79,13.42,154.44,13.42z"/>
		<path class="st0" d="M160.43,13.42c-0.34,0-0.62-0.12-0.85-0.35c-0.23-0.23-0.34-0.52-0.34-0.86c0-0.35,0.11-0.64,0.34-0.87
			s0.51-0.34,0.85-0.34c0.34,0,0.63,0.11,0.85,0.34c0.22,0.23,0.34,0.52,0.34,0.87c0,0.34-0.11,0.63-0.34,0.86
			C161.06,13.31,160.78,13.42,160.43,13.42z"/>
		<path class="st0" d="M168.16,13.42c-0.62,0-1.17-0.12-1.66-0.37c-0.49-0.24-0.88-0.6-1.16-1.06s-0.43-1.01-0.43-1.66
			c0-0.66,0.15-1.21,0.46-1.67s0.72-0.81,1.23-1.06c0.51-0.24,1.06-0.37,1.66-0.37c0.48,0,0.9,0.08,1.27,0.23
			c0.37,0.16,0.67,0.35,0.91,0.59l-0.66,0.86c-0.23-0.18-0.47-0.32-0.7-0.42c-0.24-0.1-0.49-0.14-0.75-0.14
			c-0.39,0-0.74,0.08-1.04,0.25c-0.3,0.16-0.53,0.39-0.7,0.69c-0.17,0.3-0.25,0.64-0.25,1.03s0.08,0.74,0.25,1.03
			c0.16,0.3,0.39,0.52,0.68,0.68s0.63,0.24,1.03,0.24c0.34,0,0.64-0.06,0.92-0.19c0.28-0.13,0.53-0.28,0.76-0.46l0.58,0.89
			c-0.34,0.29-0.71,0.51-1.13,0.66S168.58,13.42,168.16,13.42z"/>
		<path class="st0" d="M174.83,13.42c-0.52,0-1-0.12-1.45-0.37c-0.45-0.24-0.81-0.6-1.09-1.06s-0.42-1.01-0.42-1.66
			c0-0.66,0.14-1.21,0.42-1.67s0.64-0.81,1.09-1.06c0.45-0.24,0.93-0.37,1.45-0.37s1,0.12,1.45,0.37s0.81,0.6,1.09,1.06
			s0.42,1.02,0.42,1.67s-0.14,1.2-0.42,1.66s-0.64,0.81-1.09,1.06C175.84,13.3,175.35,13.42,174.83,13.42z M174.83,12.29
			c0.32,0,0.6-0.08,0.83-0.24s0.41-0.39,0.53-0.68c0.12-0.3,0.18-0.64,0.18-1.03s-0.06-0.74-0.18-1.03c-0.12-0.3-0.3-0.53-0.53-0.69
			s-0.51-0.25-0.83-0.25s-0.59,0.08-0.82,0.25c-0.23,0.16-0.4,0.39-0.53,0.69c-0.12,0.3-0.19,0.64-0.19,1.03s0.06,0.74,0.19,1.03
			c0.12,0.3,0.3,0.52,0.53,0.68C174.24,12.21,174.51,12.29,174.83,12.29z"/>
		<path class="st0" d="M178.98,13.28V7.39h1.07l0.11,0.76h0.02c0.14-0.26,0.3-0.48,0.5-0.65s0.47-0.25,0.8-0.25
			c0.28,0,0.51,0.08,0.69,0.25s0.31,0.42,0.39,0.74c0.14-0.3,0.31-0.54,0.52-0.72s0.49-0.28,0.82-0.28c0.42,0,0.74,0.16,0.97,0.49
			c0.23,0.32,0.34,0.78,0.34,1.37v4.18h-1.34V9.2c0-0.52-0.15-0.78-0.46-0.78c-0.16,0-0.29,0.06-0.4,0.18s-0.22,0.31-0.34,0.56v4.12
			h-1.14V9.2c0-0.26-0.04-0.45-0.11-0.58c-0.08-0.13-0.2-0.2-0.37-0.2c-0.15,0-0.28,0.06-0.4,0.18c-0.11,0.12-0.22,0.31-0.34,0.56
			v4.12C180.31,13.28,178.98,13.28,178.98,13.28z"/>
	</g>
</g>
<path class="st0" d="M19.21,1.02h-16c-1.1,0-2,0.9-2,2v12c0,1.1,0.9,2,2,2h16c1.1,0,2-0.9,2-2v-12C21.21,1.91,20.31,1.02,19.21,1.02
	z M19.21,3.02v0.51l-8,6.22l-8-6.22V3.02H19.21z M3.21,15.02V6.06l7.39,5.74c0.36,0.28,0.87,0.28,1.23,0l7.39-5.74v8.96
	C19.22,15.02,3.21,15.02,3.21,15.02z"/>
</svg>
