<?xml version="1.0" encoding="utf-8"?>
<!-- Generator: Adobe Illustrator 27.8.0, SVG Export Plug-In . SVG Version: 6.00 Build 0)  -->
<svg version="1.1" id="Layer_1" xmlns="http://www.w3.org/2000/svg" xmlns:xlink="http://www.w3.org/1999/xlink" x="0px" y="0px"
	 viewBox="0 0 129.14 18.04" style="enable-background:new 0 0 129.14 18.04;" xml:space="preserve">
<style type="text/css">
	.st0{fill:#FFFFFF;}
</style>
<g>
	<g>
		<path class="st0" d="M24.33,12.09V9.82h-2.14V8.81h2.14V6.55h1.06v2.27h2.14v1.01h-2.14v2.27H24.33z"/>
		<path class="st0" d="M31.86,13.42c-0.44,0-0.83-0.05-1.18-0.14c-0.35-0.1-0.65-0.23-0.92-0.39c-0.26-0.16-0.5-0.34-0.7-0.52
			l0.64-0.89c0.18,0.14,0.36,0.28,0.55,0.4c0.19,0.12,0.41,0.22,0.64,0.3c0.24,0.08,0.5,0.11,0.8,0.11c0.32,0,0.61-0.06,0.86-0.17
			c0.26-0.12,0.46-0.28,0.61-0.5c0.15-0.22,0.22-0.48,0.22-0.79c0-0.46-0.15-0.81-0.45-1.06c-0.3-0.25-0.69-0.37-1.18-0.37
			c-0.28,0-0.52,0.03-0.72,0.1s-0.43,0.18-0.7,0.33l-0.66-0.42l0.24-3.77h4.5v1.16h-3.3l-0.17,1.85c0.2-0.08,0.39-0.14,0.58-0.19
			c0.18-0.04,0.39-0.07,0.62-0.07c0.48,0,0.92,0.09,1.32,0.26c0.4,0.17,0.72,0.43,0.95,0.79c0.24,0.35,0.35,0.8,0.35,1.34
			c0,0.56-0.14,1.04-0.41,1.43c-0.27,0.39-0.63,0.69-1.07,0.89C32.85,13.32,32.37,13.42,31.86,13.42z"/>
		<path class="st0" d="M38.16,13.28c0.03-0.68,0.1-1.3,0.2-1.87c0.1-0.57,0.24-1.1,0.43-1.6c0.18-0.5,0.42-0.99,0.71-1.48
			c0.29-0.49,0.65-0.99,1.06-1.51h-4.12V5.65h5.64v0.84c-0.5,0.56-0.9,1.09-1.21,1.59c-0.31,0.5-0.56,1.01-0.74,1.52
			c-0.18,0.52-0.31,1.07-0.39,1.66c-0.08,0.59-0.14,1.26-0.18,2.02H38.16z"/>
		<path class="st0" d="M53.45,13.42c-0.44,0-0.83-0.05-1.18-0.14s-0.66-0.23-0.93-0.39c-0.27-0.16-0.5-0.35-0.68-0.55l0.65-0.89
			c0.26,0.23,0.55,0.43,0.89,0.59c0.34,0.16,0.72,0.25,1.13,0.25c0.31,0,0.59-0.05,0.84-0.14c0.25-0.09,0.44-0.22,0.58-0.4
			c0.14-0.17,0.21-0.38,0.21-0.62c0-0.26-0.08-0.49-0.24-0.68c-0.16-0.19-0.42-0.34-0.79-0.45s-0.87-0.16-1.5-0.16V8.84
			c0.55,0,0.99-0.05,1.32-0.16s0.57-0.25,0.72-0.43c0.15-0.18,0.23-0.39,0.23-0.63c0-0.32-0.12-0.57-0.37-0.75
			c-0.24-0.18-0.57-0.27-0.98-0.27c-0.33,0-0.64,0.07-0.92,0.2c-0.29,0.13-0.56,0.31-0.82,0.52l-0.72-0.85
			c0.35-0.29,0.74-0.52,1.16-0.7c0.42-0.18,0.87-0.26,1.36-0.26c0.52,0,0.98,0.08,1.39,0.23c0.4,0.16,0.72,0.38,0.95,0.68
			c0.23,0.3,0.34,0.67,0.34,1.1c0,0.42-0.14,0.78-0.42,1.07c-0.28,0.29-0.66,0.52-1.13,0.68v0.05c0.34,0.08,0.64,0.2,0.92,0.37
			c0.28,0.17,0.49,0.38,0.65,0.64c0.16,0.26,0.24,0.55,0.24,0.89c0,0.46-0.13,0.86-0.4,1.19c-0.27,0.33-0.62,0.58-1.06,0.76
			C54.46,13.34,53.98,13.42,53.45,13.42z"/>
		<path class="st0" d="M58.31,13.28v-1.13h2.12V7.13h-1.69V6.27c0.32-0.05,0.6-0.1,0.84-0.16c0.24-0.06,0.46-0.12,0.65-0.2
			c0.2-0.08,0.39-0.17,0.57-0.26h1.01v6.5h1.87v1.13H58.31z"/>
		<path class="st0" d="M67.86,13.42c-0.44,0-0.83-0.05-1.18-0.14c-0.35-0.1-0.65-0.23-0.92-0.39c-0.26-0.16-0.5-0.34-0.7-0.52
			l0.64-0.89c0.18,0.14,0.36,0.28,0.55,0.4c0.19,0.12,0.41,0.22,0.64,0.3c0.24,0.08,0.5,0.11,0.8,0.11c0.32,0,0.61-0.06,0.86-0.17
			c0.26-0.12,0.46-0.28,0.61-0.5c0.15-0.22,0.22-0.48,0.22-0.79c0-0.46-0.15-0.81-0.45-1.06c-0.3-0.25-0.69-0.37-1.18-0.37
			c-0.28,0-0.52,0.03-0.72,0.1s-0.43,0.18-0.7,0.33l-0.66-0.42l0.24-3.77h4.5v1.16h-3.3l-0.17,1.85c0.2-0.08,0.39-0.14,0.58-0.19
			c0.18-0.04,0.39-0.07,0.62-0.07c0.48,0,0.92,0.09,1.32,0.26c0.4,0.17,0.72,0.43,0.95,0.79c0.24,0.35,0.35,0.8,0.35,1.34
			c0,0.56-0.14,1.04-0.41,1.43c-0.27,0.39-0.63,0.69-1.07,0.89C68.85,13.32,68.37,13.42,67.86,13.42z"/>
		<path class="st0" d="M75.06,13.42c-0.44,0-0.83-0.05-1.18-0.14c-0.35-0.1-0.65-0.23-0.92-0.39c-0.26-0.16-0.5-0.34-0.7-0.52
			l0.64-0.89c0.18,0.14,0.36,0.28,0.55,0.4c0.19,0.12,0.41,0.22,0.64,0.3c0.24,0.08,0.5,0.11,0.8,0.11c0.32,0,0.61-0.06,0.86-0.17
			c0.26-0.12,0.46-0.28,0.61-0.5c0.15-0.22,0.22-0.48,0.22-0.79c0-0.46-0.15-0.81-0.45-1.06c-0.3-0.25-0.69-0.37-1.18-0.37
			c-0.28,0-0.52,0.03-0.72,0.1s-0.43,0.18-0.7,0.33l-0.66-0.42l0.24-3.77h4.5v1.16h-3.3l-0.17,1.85c0.2-0.08,0.39-0.14,0.58-0.19
			c0.18-0.04,0.39-0.07,0.62-0.07c0.48,0,0.92,0.09,1.32,0.26c0.4,0.17,0.72,0.43,0.95,0.79c0.24,0.35,0.35,0.8,0.35,1.34
			c0,0.56-0.14,1.04-0.41,1.43c-0.27,0.39-0.63,0.69-1.07,0.89C76.05,13.32,75.57,13.42,75.06,13.42z"/>
		<path class="st0" d="M82.25,13.42c-0.44,0-0.83-0.05-1.18-0.14s-0.66-0.23-0.93-0.39c-0.27-0.16-0.5-0.35-0.68-0.55l0.65-0.89
			c0.26,0.23,0.55,0.43,0.89,0.59c0.34,0.16,0.72,0.25,1.13,0.25c0.31,0,0.59-0.05,0.84-0.14c0.25-0.09,0.44-0.22,0.58-0.4
			c0.14-0.17,0.21-0.38,0.21-0.62c0-0.26-0.08-0.49-0.24-0.68c-0.16-0.19-0.42-0.34-0.79-0.45s-0.87-0.16-1.5-0.16V8.84
			c0.55,0,0.99-0.05,1.32-0.16s0.57-0.25,0.72-0.43c0.15-0.18,0.23-0.39,0.23-0.63c0-0.32-0.12-0.57-0.37-0.75
			c-0.24-0.18-0.57-0.27-0.98-0.27c-0.33,0-0.64,0.07-0.92,0.2c-0.29,0.13-0.56,0.31-0.82,0.52l-0.72-0.85
			c0.35-0.29,0.74-0.52,1.16-0.7c0.42-0.18,0.87-0.26,1.36-0.26c0.52,0,0.98,0.08,1.39,0.23c0.4,0.16,0.72,0.38,0.95,0.68
			c0.23,0.3,0.34,0.67,0.34,1.1c0,0.42-0.14,0.78-0.42,1.07c-0.28,0.29-0.66,0.52-1.13,0.68v0.05c0.34,0.08,0.64,0.2,0.92,0.37
			c0.28,0.17,0.49,0.38,0.65,0.64c0.16,0.26,0.24,0.55,0.24,0.89c0,0.46-0.13,0.86-0.4,1.19c-0.27,0.33-0.62,0.58-1.06,0.76
			C83.26,13.34,82.78,13.42,82.25,13.42z"/>
		<path class="st0" d="M89.66,13.42c-0.58,0-1.09-0.09-1.51-0.27c-0.42-0.18-0.75-0.43-0.98-0.74c-0.23-0.32-0.35-0.68-0.35-1.09
			c0-0.33,0.07-0.61,0.22-0.86c0.15-0.24,0.34-0.46,0.57-0.64c0.23-0.18,0.48-0.33,0.76-0.46V9.32c-0.32-0.21-0.59-0.46-0.81-0.75
			s-0.33-0.64-0.33-1.04c0-0.41,0.11-0.77,0.32-1.07c0.21-0.31,0.5-0.54,0.88-0.71s0.8-0.25,1.28-0.25c0.76,0,1.36,0.19,1.79,0.57
			c0.44,0.38,0.65,0.88,0.65,1.49c0,0.35-0.11,0.68-0.34,0.98c-0.22,0.3-0.49,0.55-0.8,0.76v0.05c0.28,0.14,0.53,0.29,0.75,0.46
			s0.4,0.38,0.53,0.63c0.13,0.25,0.2,0.55,0.2,0.9c0,0.39-0.11,0.74-0.33,1.06c-0.22,0.31-0.54,0.56-0.96,0.74
			C90.77,13.33,90.26,13.42,89.66,13.42z M89.69,12.44c0.46,0,0.83-0.1,1.09-0.3c0.26-0.2,0.4-0.48,0.4-0.84
			c0-0.22-0.05-0.4-0.16-0.55c-0.1-0.15-0.25-0.28-0.44-0.4c-0.19-0.11-0.42-0.21-0.67-0.31c-0.26-0.09-0.54-0.19-0.84-0.29
			c-0.2,0.11-0.38,0.24-0.53,0.38c-0.15,0.14-0.27,0.3-0.36,0.47s-0.13,0.36-0.13,0.57c0,0.26,0.07,0.48,0.2,0.67
			c0.14,0.19,0.33,0.33,0.58,0.44C89.07,12.39,89.36,12.44,89.69,12.44z M90.23,8.97c0.5-0.41,0.76-0.85,0.76-1.32
			c0-0.22-0.05-0.42-0.15-0.6c-0.1-0.18-0.25-0.31-0.44-0.41c-0.2-0.1-0.43-0.15-0.71-0.15c-0.35,0-0.64,0.09-0.88,0.28
			c-0.23,0.18-0.35,0.44-0.35,0.77c0,0.26,0.08,0.47,0.23,0.64s0.37,0.32,0.64,0.44C89.59,8.74,89.89,8.86,90.23,8.97z"/>
		<path class="st0" d="M104.06,13.42c-0.58,0-1.09-0.09-1.51-0.27c-0.42-0.18-0.75-0.43-0.98-0.74c-0.23-0.32-0.35-0.68-0.35-1.09
			c0-0.33,0.07-0.61,0.22-0.86c0.15-0.24,0.34-0.46,0.57-0.64c0.23-0.18,0.48-0.33,0.76-0.46V9.32c-0.32-0.21-0.59-0.46-0.81-0.75
			s-0.33-0.64-0.33-1.04c0-0.41,0.11-0.77,0.32-1.07c0.21-0.31,0.5-0.54,0.88-0.71s0.8-0.25,1.28-0.25c0.76,0,1.36,0.19,1.79,0.57
			c0.44,0.38,0.65,0.88,0.65,1.49c0,0.35-0.11,0.68-0.34,0.98c-0.22,0.3-0.49,0.55-0.8,0.76v0.05c0.28,0.14,0.53,0.29,0.75,0.46
			s0.4,0.38,0.53,0.63c0.13,0.25,0.2,0.55,0.2,0.9c0,0.39-0.11,0.74-0.33,1.06c-0.22,0.31-0.54,0.56-0.96,0.74
			C105.17,13.33,104.66,13.42,104.06,13.42z M104.09,12.44c0.46,0,0.83-0.1,1.09-0.3c0.26-0.2,0.4-0.48,0.4-0.84
			c0-0.22-0.05-0.4-0.16-0.55c-0.1-0.15-0.25-0.28-0.44-0.4c-0.19-0.11-0.42-0.21-0.67-0.31c-0.26-0.09-0.54-0.19-0.84-0.29
			c-0.2,0.11-0.38,0.24-0.53,0.38c-0.15,0.14-0.27,0.3-0.36,0.47s-0.13,0.36-0.13,0.57c0,0.26,0.07,0.48,0.2,0.67
			c0.14,0.19,0.33,0.33,0.58,0.44C103.47,12.39,103.76,12.44,104.09,12.44z M104.63,8.97c0.5-0.41,0.76-0.85,0.76-1.32
			c0-0.22-0.05-0.42-0.15-0.6c-0.1-0.18-0.25-0.31-0.44-0.41c-0.2-0.1-0.43-0.15-0.71-0.15c-0.35,0-0.64,0.09-0.88,0.28
			c-0.23,0.18-0.35,0.44-0.35,0.77c0,0.26,0.08,0.47,0.23,0.64s0.37,0.32,0.64,0.44C103.99,8.74,104.29,8.86,104.63,8.97z"/>
		<path class="st0" d="M111.48,13.42c-0.41,0-0.79-0.07-1.15-0.22c-0.36-0.15-0.68-0.37-0.96-0.68s-0.5-0.69-0.66-1.16
			s-0.24-1.03-0.24-1.67c0-0.74,0.09-1.37,0.27-1.9c0.18-0.53,0.42-0.97,0.73-1.3c0.3-0.34,0.65-0.58,1.04-0.74
			c0.39-0.16,0.8-0.24,1.21-0.24c0.5,0,0.95,0.08,1.33,0.25s0.7,0.37,0.95,0.61l-0.74,0.84c-0.18-0.17-0.39-0.31-0.64-0.41
			c-0.25-0.11-0.51-0.16-0.79-0.16c-0.37,0-0.71,0.1-1.03,0.29c-0.32,0.19-0.57,0.51-0.76,0.96c-0.19,0.45-0.29,1.05-0.29,1.81
			c0,0.63,0.07,1.14,0.22,1.54c0.14,0.39,0.35,0.68,0.61,0.86s0.56,0.28,0.89,0.28c0.25,0,0.48-0.06,0.69-0.17
			c0.21-0.11,0.38-0.28,0.5-0.49c0.12-0.22,0.19-0.48,0.19-0.79c0-0.46-0.12-0.8-0.36-1.02c-0.24-0.22-0.58-0.34-1.02-0.34
			c-0.26,0-0.55,0.07-0.85,0.21c-0.3,0.14-0.59,0.39-0.88,0.74l-0.05-0.97c0.3-0.31,0.63-0.55,1-0.73c0.37-0.17,0.72-0.26,1.07-0.26
			c0.46,0,0.86,0.09,1.22,0.26c0.36,0.17,0.64,0.43,0.85,0.79s0.31,0.79,0.31,1.32c0,0.51-0.12,0.96-0.37,1.33
			c-0.24,0.38-0.57,0.67-0.97,0.87C112.4,13.32,111.96,13.42,111.48,13.42z"/>
		<path class="st0" d="M118.45,13.42c-0.58,0-1.08-0.16-1.5-0.47c-0.42-0.31-0.75-0.76-0.98-1.36c-0.23-0.59-0.35-1.32-0.35-2.17
			c0-1.29,0.26-2.26,0.77-2.93s1.2-1,2.06-1c0.87,0,1.56,0.33,2.07,1s0.76,1.64,0.76,2.93c0,0.86-0.11,1.58-0.34,2.17
			c-0.23,0.59-0.55,1.04-0.98,1.36C119.54,13.27,119.04,13.42,118.45,13.42z M118.45,12.34c0.3,0,0.58-0.1,0.82-0.29
			c0.24-0.2,0.43-0.51,0.56-0.94c0.14-0.43,0.2-0.99,0.2-1.69c0-0.7-0.07-1.25-0.2-1.67c-0.14-0.42-0.32-0.72-0.56-0.9
			s-0.51-0.28-0.82-0.28c-0.3,0-0.58,0.09-0.82,0.28s-0.43,0.48-0.56,0.9s-0.2,0.97-0.2,1.67c0,0.7,0.07,1.26,0.2,1.69
			c0.14,0.43,0.32,0.74,0.56,0.94C117.88,12.24,118.15,12.34,118.45,12.34z M118.45,10.23c-0.22,0-0.42-0.08-0.58-0.23
			s-0.25-0.36-0.25-0.62c0-0.26,0.08-0.47,0.25-0.62s0.36-0.23,0.58-0.23c0.23,0,0.43,0.08,0.59,0.23c0.16,0.15,0.24,0.36,0.24,0.62
			c0,0.26-0.08,0.47-0.24,0.62C118.88,10.15,118.68,10.23,118.45,10.23z"/>
		<path class="st0" d="M122.83,13.28v-0.8c0.8-0.69,1.49-1.3,2.06-1.84c0.57-0.54,1.01-1.03,1.32-1.47
			c0.31-0.44,0.46-0.86,0.46-1.25c0-0.41-0.12-0.73-0.37-0.97c-0.25-0.24-0.61-0.35-1.09-0.35c-0.33,0-0.63,0.08-0.91,0.25
			s-0.54,0.37-0.77,0.6l-0.76-0.77c0.37-0.38,0.76-0.67,1.16-0.87c0.41-0.2,0.89-0.31,1.45-0.31c0.53,0,0.99,0.1,1.37,0.29
			c0.39,0.19,0.69,0.46,0.91,0.82s0.32,0.76,0.32,1.24c0,0.45-0.14,0.91-0.42,1.37c-0.28,0.47-0.66,0.95-1.13,1.43
			c-0.48,0.49-1.01,1-1.6,1.54c0.22-0.02,0.46-0.04,0.71-0.06s0.48-0.02,0.68-0.02h2.16v1.18H122.83z"/>
	</g>
</g>
<path class="st0" d="M16.92,13.55l-3.65-3.32c-0.36-0.33-0.91-0.31-1.25,0.04l-2.15,2.21c-0.52-0.1-1.56-0.42-2.63-1.49
	C6.17,9.92,5.85,8.88,5.75,8.36l2.21-2.15C8.31,5.87,8.32,5.32,8,4.96L4.68,1.31C4.35,0.95,3.8,0.92,3.43,1.23L1.48,2.91
	C1.32,3.06,1.23,3.27,1.22,3.49c-0.01,0.22-0.27,5.54,3.85,9.67c3.6,3.6,8.1,3.86,9.35,3.86c0.18,0,0.29-0.01,0.32-0.01
	c0.22-0.01,0.43-0.11,0.58-0.26l1.67-1.95C17.31,14.43,17.28,13.88,16.92,13.55z"/>
</svg>
